<?xml version="1.0" encoding="utf-8"?>
<!-- Generator: Adobe Illustrator 20.1.0, SVG Export Plug-In . SVG Version: 6.00 Build 0)  -->
<svg version="1.1" id="Layer_1" xmlns="http://www.w3.org/2000/svg" xmlns:xlink="http://www.w3.org/1999/xlink" x="0px" y="0px"
	 viewBox="0 0 530.8 90.9" style="enable-background:new 0 0 530.8 90.9;" xml:space="preserve" fill="#358998">
<path d="M0,0.2h18.6c10.9,0,17.8,2.8,20.8,8.4c1.8,3.6,2.7,8.1,2.7,13.5c-0.1,1-0.2,2-0.2,3h10.3v3.5H41.5v-0.1
	c0.2-2.1,0.3-3.2,0.3-3.4h-6v3.5h5.7v12.2H29.7v4.2h-0.1C20.4,45,15.2,45,14,45v6.3h-2.5v11.3h1.4v9.5H1.7v-4.4H0.1v-3.7
	c0-4.3,0-11.3-0.1-21h6.8v-3.7H0V0.2z M14,12.4v20.5h4.3v-3h8.5c1.1-1,1.7-4,1.7-8.7c0-4.6-1-7.2-3.1-7.9c-0.8-0.6-2.5-0.9-5.3-0.9
	H14z M42.4,29.3h0.4c0.4,0.3,0.6,0.7,0.6,1l0.8-1h0.5v0.2c-0.6,0.9-1,1.7-1,2.5h-0.4c-0.2,0-0.3-0.5-0.4-1.4c-0.1,0-0.4-0.4-0.9-1.2
	L42.4,29.3z M42.2,32.8h2.2v0.6h-0.7v1.9c0,0.2-0.1,0.3-0.3,0.3h-0.3c-0.1,0-0.2-0.1-0.2-0.3v-1.9h-0.8V32.8z"/>
<path d="M55.1,0.1h13.6c0.1,0,0.2,0.1,0.2,0.3v35c0,0.2-0.1,0.3-0.2,0.3h-1.6v36.3c0,0.2-0.1,0.3-0.3,0.3H55.1
	c-0.2,0-0.3-0.1-0.3-0.3V34.7h-3.6c-0.2,0-0.3-0.1-0.3-0.3v-1.6c0-0.2,0.1-0.3,0.3-0.3h3.6V0.3C54.9,0.1,55,0.1,55.1,0.1z M55,32.6
	v2.1h6.9v-2.1H55z"/>
<path d="M68.2,50.7h6.5V53h16v4.7h9.9V53h21.3v4.7h-14.6v12.8H90.7v1.6H74.9c-0.1,0-0.2-0.1-0.2-0.3V53h-6.4V50.7z M74.7,0.1h21.9
	c9.2,0,15.5,3.1,18.9,9.3c2.9,4.9,4.3,12.9,4.3,24.1h2.2v17.2h-21.3v-1.9h6.6V33.5h-1.9v-6.3c0-7.1-1.6-11.6-4.7-13.5
	c-1.9-1.1-4.9-1.6-8.9-1.6h-2.9v21.1h2v17.5H76.3V34.5h-1.7V0.1z M90.7,50.7h9.9V53h-9.9V50.7z M91.5,47.1h0.7
	c0.1,0,0.4,0.3,0.8,0.9c0.3-0.4,0.5-0.7,0.5-0.9h0.8v0.1c-0.5,0.8-0.8,1.3-0.8,1.5l1,1.6h-1c0-0.3-0.2-0.6-0.6-1
	c-0.3,0.6-0.6,0.9-0.8,1h-0.7c0.5-1,0.9-1.5,1.1-1.6L91.5,47.1z M105.7,45.3h0.7v1.8h0.4v0.6h-0.4v0.8h-0.7v-0.8h-1.3v-0.5
	C105.3,46.1,105.7,45.4,105.7,45.3z M105.1,47.2h0.6v-0.7C105.6,46.5,105.4,46.7,105.1,47.2z M109,58.2h0.9c0.6,1.6,0.9,2.7,1.1,3.3
	h-0.6c-0.1,0-0.3-0.2-0.4-0.7h-1c-0.2,0-0.3,0.2-0.4,0.7h-0.8v-0.1C107.9,61.3,108.3,60.2,109,58.2z M109.3,59.2
	c0,0.1-0.1,0.4-0.3,1h0.6c-0.1-0.5-0.2-0.9-0.2-1H109.3z M111.8,58.2h0.8l0.6,2.1h0.1c0-0.1,0.2-0.8,0.6-2.1h0.8
	c0,0.3-0.3,1.4-1,3.3h-0.7C112.7,61.4,112.3,60.3,111.8,58.2z M115.8,58.2h0.9v3.3h-0.9V58.2z M118,58.2h1.4c1,0,1.6,0.6,1.6,1.8
	c0,0.8-0.5,1.3-1.6,1.5H118V58.2z M118.9,58.9v1.8h0.8c0.1,0,0.3-0.2,0.5-0.5v-0.9c0-0.1-0.2-0.3-0.5-0.5H118.9z M121.9,50.7h14.2
	V53h-14.2V50.7z"/>
<path d="M151.5,0h0.1c10.8,0,17.3,3.5,19.8,10.5c1.1,2.6,1.7,6.3,1.7,11l-11.7,1.6l-0.2-0.3v-0.3c0-5.7-1.9-9-5.7-10.2
	c-1.2-0.3-2.6-0.5-4.3-0.6c-4.2,0-6.8,2.2-8,6.7c-0.7,3-1.1,6.5-1.1,10.6v5.6c0,6.6,0.1,11.5,0.3,14.8h3v10.1h14.3V42.3h-9v-9.2
	h27.2v2h-3.6v10.7H167v3.3h3.6v20.5h-39V58.7h-4.4v-1h1.9v-1.1h2.5v-4.1h-6.8v-8.7h3.2c-0.1-2.5-0.1-4-0.1-4.4
	c0-15.3,0.8-24.5,2.5-27.7c0.5-2,1.9-4.2,4.2-6.6C137.9,1.7,143.6,0,151.5,0z M141.6,70.6h14.8v1.5h-14.8V70.6z M143.4,45.3h0.7v3.2
	h-0.7V45.3z M147.6,55.6c1,0.2,1.6,0.6,1.6,1.4v0.4c-0.1,1-0.6,1.6-1.6,1.6h-0.1c-1,0-1.5-0.6-1.5-1.8
	C146.3,56.1,146.8,55.6,147.6,55.6z M146.9,57.2v0.6c0,0.1,0.2,0.3,0.5,0.5h0.6c0.3,0,0.4-0.3,0.5-1c0-0.4-0.2-0.7-0.6-1h-0.1
	C147.1,56.3,146.9,56.6,146.9,57.2z M150.3,55.7h2.6v0.7h-0.8v2.3c0,0.1-0.1,0.2-0.3,0.2h-0.4c-0.2,0-0.3-0.1-0.3-0.2v-2.3h-0.7
	c-0.2,0-0.3-0.1-0.3-0.2V55.7z M172.7,49.6c0.5,0.2,0.8,0.4,0.8,0.6v0.5c0,0.1-0.2,0.3-0.5,0.5c0.1,0.1,0.1,0.3,0.1,0.4h0.3v-0.3
	h0.6v0.2c0,0.4-0.1,0.6-0.3,0.6c0,0.1,0.2,0.4,0.6,0.9h-0.7l-0.4-0.3c-0.3,0.2-0.7,0.4-1,0.4c-0.5,0-0.9-0.4-1-1.1
	c0.1-0.3,0.3-0.6,0.6-0.7c-0.1-0.4-0.1-0.8-0.1-1C171.8,50,172.1,49.8,172.7,49.6z M172.7,54.7c0.5,0.2,0.8,0.4,0.8,0.6v0.5
	c0,0.1-0.2,0.3-0.5,0.5c0.1,0.2,0.1,0.3,0.1,0.4h0.3v-0.3h0.6v0.2c0,0.4-0.1,0.6-0.3,0.6c0,0.1,0.2,0.3,0.6,0.8h-0.7l-0.4-0.2
	c-0.3,0.2-0.7,0.4-1,0.4c-0.5,0-0.9-0.4-1-1.1c0.1-0.3,0.3-0.5,0.6-0.7c-0.1-0.4-0.1-0.8-0.1-1C171.8,55.1,172.1,54.9,172.7,54.7z
	 M172.5,59.9c0.4,0,0.7,0.2,1,0.6V61c0,0.1-0.2,0.3-0.5,0.5c0.1,0.2,0.1,0.3,0.1,0.4h0.3v-0.2h0.6v0.1c0,0.4-0.1,0.6-0.3,0.6
	c0,0.1,0.2,0.4,0.6,0.9h-0.7l-0.4-0.3c-0.3,0.2-0.7,0.4-1,0.4c-0.5,0-0.9-0.4-1-1.1c0.1-0.3,0.3-0.6,0.6-0.8l-0.1-0.8v-0.2
	C171.8,60.3,172.1,60.1,172.5,59.9z M172.5,65.1c0.4,0,0.7,0.2,1,0.6v0.5c0,0.1-0.2,0.3-0.5,0.5c0.1,0.1,0.1,0.3,0.1,0.4h0.3v-0.3
	h0.6v0.1l-0.3,0.9c0.1,0,0.3,0.2,0.6,0.6h-0.7l-0.4-0.3c-0.3,0.2-0.7,0.4-1,0.4c-0.5,0-0.9-0.4-1-1.1c0.1-0.3,0.3-0.6,0.6-0.7
	l-0.1-0.9v-0.1C171.8,65.5,172.1,65.3,172.5,65.1z M172.3,51.5l-0.3,0.4V52c0,0.1,0.1,0.3,0.4,0.4c0.3-0.1,0.5-0.3,0.5-0.4
	L172.3,51.5z M172.3,56.7l-0.3,0.4v0.2c0,0.1,0.1,0.2,0.4,0.4c0.3-0.1,0.5-0.3,0.5-0.4C172.6,56.8,172.4,56.7,172.3,56.7z
	 M172.3,61.8l-0.3,0.4v0.1c0,0.1,0.1,0.2,0.4,0.4c0.3-0.1,0.5-0.2,0.5-0.4L172.3,61.8z M172.3,67l-0.3,0.4v0.1
	c0,0.1,0.1,0.3,0.4,0.4c0.3-0.1,0.5-0.2,0.5-0.4L172.3,67z M172.4,50.5c0.1,0.1,0.1,0.3,0.1,0.4c0.1,0,0.3-0.1,0.4-0.4
	c0-0.2-0.1-0.3-0.2-0.3C172.5,50.2,172.4,50.3,172.4,50.5z M172.4,55.6c0.1,0.1,0.1,0.3,0.1,0.4c0.1,0,0.3-0.1,0.4-0.4
	c0-0.2-0.1-0.3-0.2-0.3C172.5,55.4,172.4,55.5,172.4,55.6z M172.4,60.7c0.1,0.2,0.1,0.3,0.1,0.4c0.1,0,0.3-0.1,0.4-0.4
	c0-0.2-0.1-0.3-0.2-0.3C172.5,60.5,172.4,60.6,172.4,60.7z M172.4,65.9c0.1,0.2,0.1,0.3,0.1,0.4c0.1,0,0.3-0.1,0.4-0.4
	c0-0.1-0.1-0.2-0.2-0.2C172.5,65.7,172.4,65.7,172.4,65.9z"/>
<path d="M184.3,0.1h35.5v11.8c0,0.2-0.1,0.3-0.3,0.3h-21.1v15.6h18.9v0.1c0,0.5-0.1,3-0.3,7.6c-0.1,0-0.1,0.1-0.1,0.2h0.9v3.6h-16.4
	V54h-4.4v1.5h4.4V60H220v1.7h-1.5v8.8h-22.2v1.6h-10.6V46.3h-1.6v-9.1h-11.5v-1.6h11.5V0.1z M184.4,35.6v1.6h5.9v-1.6H184.4z
	 M202.6,56.4h0.9v1.2h0.1c0-0.2,0.4-0.6,1.1-1.2h0.9l-1.2,1.3l1.3,2h-0.9c-0.6-0.9-1-1.4-1.1-1.4c-0.2,0-0.3,0.1-0.3,0.3v1.1h-0.9
	V56.4z M206.8,56.4h1.7c0.5,0,0.9,0.3,1.1,1c0,0.1-0.2,0.4-0.5,0.9c0.2,0,0.4,0.5,0.5,1.5H209c-0.2,0-0.3-0.4-0.4-1.2h-1v1.2h-0.9
	V56.4z M207.6,57.1v0.8h0.9c0.2,0,0.3-0.1,0.3-0.3v-0.3c0-0.2-0.1-0.3-0.3-0.3H207.6z M212.3,56.4h0.5c0.7,0,1.2,0.5,1.4,1.5v0.5
	c0,0.3-0.1,0.6-0.4,0.9v0.2c0.2,0,0.4,0.1,0.4,0.2c0,0.1-0.1,0.3-0.4,0.4c-0.1,0-0.3-0.1-0.4-0.4l-0.6,0.2h-0.5
	c-0.8,0-1.3-0.6-1.4-1.8C211.1,56.8,211.6,56.4,212.3,56.4z M211.8,57.8v0.4c0,0.6,0.3,0.9,0.9,0.9h0.1v-0.2h-0.2v-0.1
	c0-0.1,0.1-0.3,0.4-0.4l0.4,0.2c0,0,0-0.3,0.1-0.7c0-0.6-0.4-1-1-1C212,57.1,211.8,57.3,211.8,57.8z M219.3,62.4h0.7v0.2
	c0,1.4-0.1,2.2-0.4,2.2c-0.2,0-0.4-0.5-0.4-1.6V62.4z M219.3,64.8h0.7v0.8h-0.7V64.8z"/>
<path d="M218.2,8.7h9.6l0.4,2.5h-10V8.7z M226.8,0H241c0,6.9,1.2,12.8,3.6,17.7c2.6,6.3,4.4,11.3,5.3,15v0.1h0.2
	c1.2-4.4,3.7-11.3,7.5-20.6c1-4.4,1.5-8.5,1.5-12.3h13.3c-0.8,7.2-1.8,12.6-3,16l-8,18.2h-4.9v12.5h-7.4v2.4h7.4v23h-13.8
	c-0.2,0-0.3-0.1-0.3-0.3V60.6h-2.2v-20h4.1v-1.9h-4.5c-0.4-0.4-3.2-6.7-8.3-18.8c-2.2-4.8-3.3-7.7-3.3-8.7h5.9V8.7h-6.4
	C227.2,3.4,226.8,0.5,226.8,0z M256.5,46.7h5.9v2.4h-5.9V46.7z M257.1,34.6h2.2v0.5l-1.4,1.7h1.4v0.4c0,0.2-0.1,0.3-0.3,0.3h-1.8
	c-0.2,0-0.3-0.1-0.3-0.3V37l1.4-1.7h-1.3V34.6z"/>
<path d="M300.3,5.8c10,0.5,16.2,3.9,18.6,10.2c0.7,1.6,1,2.6,1,3.1l-6.3-0.3l-0.1,1.9l6.8,0.3l0-0.1c0-0.3-0.1-0.9-0.4-1.8l11.6,0.5
	l-0.1,1.9l-11-0.5l0,0.2c0.4,2.7,0.7,5.6,0.8,8.7c0,0.2-4.4,0.3-13.3,0.4l0-0.1c0.4-8-2.2-12.1-7.7-12.4l-1.4-0.1
	c-4.1-0.2-6.7,1.4-7.8,4.9c-0.9,2.9-1.4,6.8-1.6,11.6l-0.4,9.8l-0.2,1.5l-4.6-0.2l-0.1,2.3l4.6,0.2l-0.8,17.4l19.4,0.9l0.8-18.1
	l11.1,0.5l-0.8,18.1l-6.2-0.3l-0.5,11.1l-12.9-0.6l0,1l-10-0.5l0-1L278.5,76l0.3-5.6l6.8,0.3l0.1-2.4l-10.1-0.5l0.4-8.2l-4.4-0.2
	l0.5-10.1l2.3,0.1c0.1-4.2,0.2-7.5,0.3-10c0.5-10.9,1.3-17.8,2.5-20.6c1.1-3.2,2.9-6,5.2-8.3C286.5,7,292.5,5.5,300.3,5.8z
	 M289,61.7l0.6,0l-0.1,2.5l1.5,0.1l0,0.8l-2.1-0.1c-0.1,0-0.2-0.1-0.2-0.3l0.1-2.8C288.8,61.7,288.9,61.7,289,61.7z M304.1,62.3
	l0.8,0c0.4,0.4,0.6,0.7,0.6,1c0.1,0,0.4-0.3,0.9-0.9l0.6,0l0,0.3c-0.6,0.7-0.9,1.2-0.9,1.5c0.1,0,0.4,0.5,0.9,1.3l0,0.2l-0.7,0
	l-0.8-1c-0.3,0.6-0.6,0.9-0.7,0.9l-0.8,0c0.2-0.3,0.6-0.9,1.2-1.7l-0.9-1.5L304.1,62.3z M313.9,67.2c0.8,0.2,1.2,0.5,1.2,0.8l0,0.5
	l-0.5,0l-0.4-0.5l-0.5,0c-0.2,0-0.3,0.1-0.3,0.2l0,0.3c1.2,0.3,1.8,0.6,1.8,0.9l0,0.4c0,0.6-0.4,0.9-1.1,0.9l-0.5,0
	c-0.4,0-0.8-0.3-1-0.8l0-0.5l0.7,0c0,0.4,0.2,0.6,0.7,0.6l0.2,0c0.1,0,0.2-0.1,0.4-0.3c0-0.1-0.6-0.4-1.7-0.9l-0.1-0.3l0-0.6
	C312.6,67.5,313,67.3,313.9,67.2z"/>
<path d="M327.2,7.2l24.6,1.1c8.2,0.4,13.4,3.5,15.6,9.4c0.9,3,1.3,6.5,1.1,10.3l-0.1,3c-0.3,7-2.1,12.2-5.3,15.7l-5.2-0.2l-0.1,2.7
	l8,0.4l-0.8,17.2l-4.7-0.2l-0.1,2.7l7.1,0.3l-0.5,10.1l-15-0.7l0.7-16.2l-5.8-0.3l0.5-10.5l-10-0.5l-0.8,17.8l2.2,0.1l-0.5,10.2
	L324.2,79c-0.2,0-0.2-0.1-0.2-0.3l1.3-28.8l6.2,0.3l0.1-2.1l-6.2-0.3L327.2,7.2z M337.7,52.1l0.6,0c0.3,0.2,0.5,0.4,0.5,0.8
	c0.1,0,0.3-0.2,0.5-0.7l0.8,0l0,0.2l-0.8,1c0,0.1,0.3,0.5,0.8,1.4l0,0.1l-0.6,0c-0.1,0-0.3-0.3-0.7-0.9c-0.3,0.5-0.5,0.8-0.6,0.8
	l-0.6,0c0.6-0.8,0.9-1.3,0.9-1.4L337.7,52.1z M337.7,55.8l2.2,0.1l0,0.4l-1.4,1.6l1.4,0.1l0,0.6l-2.3-0.1l0-0.5l1.4-1.6l-1.2-0.1
	L337.7,55.8z M340.8,19.5l-0.9,20.3l3.4,0.2c5.1,0.2,8.1-0.1,9-1.1c0.9-0.5,1.6-1.6,2.1-3.2l5.3,0.2l0.1-2.6l-4.8-0.2l0,0.3
	c-0.3,1.5-0.6,2.3-0.7,2.3l-6.9-0.3l0.1-2.6l7.2,0.3c0.2,0,0.3-0.1,0.3-0.2c0.2-2.1,0.2-3.2,0.3-3.5c0.2-4.5-0.4-7.3-1.9-8.3
	c-1.2-0.8-3.4-1.2-6.6-1.4L340.8,19.5z"/>
<path d="M372.5,9l13.9,0.6l-1.7,38.1l-6.5-0.3l-0.1,2.1l6.5,0.3l-0.3,7.1c-0.3,6.5,0.7,10.3,3,11.6c1.1,0.8,2.6,1.2,4.3,1.3l4.3,0.2
	l0.6-12.6l3.8,0.2l2.1-47.1l13.8,0.6l-2,44.2l-5-0.2l-0.1,3.2l5,0.2c-0.1,1.1-0.2,1.9-0.2,2.4l-0.6,14.1l-7.2-0.3l-0.4,8.1
	l-32.2-1.4l0.4-9.9l-3-0.1l1.3-29.8l-1.1,0L372.5,9z M384.7,47.7l7.8,0.4l-0.1,2.1l-7.8-0.4L384.7,47.7z M406.5,75.2l0.5,0
	c0.2,0,0.4,0.6,0.5,1.7l0.1,0c0.4-1,0.6-1.5,0.6-1.6l0.7,0c-0.6,1.8-1,2.7-1.2,2.7l-0.4,0C407.2,78,406.9,77.1,406.5,75.2z"/>
<path d="M412.4,61.6l4.8,0.2l-0.1,2.6l-4.8-0.2L412.4,61.6z M442.9,12.4c8,0.4,13.2,3.2,15.7,8.4c1.7,4,2.5,7.8,2.3,11.5l-0.1,0
	c-5.5,0.2-9.2,0.3-11.2,0.2c0.1-2.6-0.6-4.9-2.2-6.8c-1.5-0.9-2.9-1.4-4.2-1.5l-2-0.1c-3.4-0.2-5.6,1.1-6.4,3.7
	c-0.2,0.8-0.3,1.4-0.3,1.8l0,1.1c-0.2,3.8,1.7,6.6,5.6,8.4c0.3,0.3,3,1.7,8.1,4.1c2.7,1.4,5.2,3.1,7.4,5.1l0,0.1l-12.6-0.6l-0.1,1.4
	l16.6,0.7l-0.1,2l2.1,0.1l-1,21.8l-4.1-0.2l-0.5,11.2l-31.9-1.4l0.5-11.2l-7.5-0.3l0.3-7.5l4.3,0.2l0.1-2.6l-4.3-0.2l0.1-1.8
	l14.6,0.7l-0.5,11.9l15,0.7l0.8-17.9L436,54.8l0.3-5.9l-13.9-0.6l0.1-1.4l6.7,0.3l0-0.1c-5.7-4.2-8.4-9.9-8.1-17l0-1
	c0.3-6,2.3-10.5,6.1-13.4C430.7,13.2,435.9,12.1,442.9,12.4z M443.4,70.1l0.5,0c0.2,0,0.4,0.5,0.5,1.6l0.3,0c0.2-1,0.5-1.5,0.6-1.5
	l0.5,0c0.1,0,0.2,0.1,0.2,0.3l-0.1,2.2c0,0.2-0.1,0.2-0.2,0.2l-0.4,0l0.1-1.5l-0.2,0l-0.5,1.5l-0.4,0c-0.2,0-0.3-0.5-0.5-1.5l-0.1,0
	l-0.1,1.5l-0.4,0c-0.2,0-0.2-0.1-0.2-0.3l0.1-2.2C443.1,70.1,443.2,70.1,443.4,70.1z M443.9,66.6l0.5,0c0.1,0,0.3,0.3,0.8,0.9
	c0.3-0.6,0.5-0.9,0.6-0.9l0.4,0c0.2,0,0.2,0.1,0.2,0.2c-0.7,0.8-1.1,1.6-1.2,2.5l-0.4,0c-0.2,0-0.3-0.5-0.3-1.4
	C444.1,67.3,443.9,66.8,443.9,66.6z M444.6,63l1.5,0.1c0.2,0,0.2,0.1,0.2,0.3l0,0.4l-1.3-0.1l0,0.5l1.2,0.1l0,0.4
	c0,0.2-0.1,0.2-0.2,0.2l-1,0l0,0.5l1.3,0.1l0,0.4c0,0.1-0.1,0.2-0.3,0.2l-1.5-0.1c-0.2,0-0.2-0.1-0.2-0.2l0.1-2.3
	C444.4,63.1,444.5,63,444.6,63z M457,74.4l1.2,0.1c0.6,0,0.9,0.4,0.9,1c-0.2,0-0.3,0.1-0.3,0.2c0.2,0.3,0.3,0.6,0.3,0.9
	c-0.2,0.5-0.7,0.7-1.3,0.6l-0.7,0c-0.2,0-0.2-0.1-0.2-0.3L457,74.4z M456.8,77.9l0.5,0c0.2,0,0.5,0.6,1,1.7l0.1,0l0.1-1.7l0.6,0
	l-0.1,2.5c0,0.2-0.1,0.2-0.3,0.2l-0.3,0c-0.1,0-0.4-0.5-1.1-1.6l-0.1,1.3c0,0.2-0.1,0.2-0.3,0.2l-0.1,0c-0.2,0-0.2-0.1-0.2-0.3
	L456.8,77.9z M457.6,75l0,0.5l0.5,0c0.1,0,0.2-0.1,0.2-0.2l0-0.2L457.6,75z M457.6,75.9l0,0.6l0.6,0c0.2,0,0.3-0.1,0.3-0.2l0-0.1
	c0-0.2-0.1-0.3-0.2-0.3L457.6,75.9z M459.4,48.6l5.1,0.2l-0.1,1.4l-5.1-0.2L459.4,48.6z"/>
<path d="M469.5,13.4l14.3,0.6l-1.3,28.7l14.4,0.6l1.3-28.7l12.1,0.5l-1.8,40.9l-5-0.2l-0.1,1.8l5,0.2l-1.3,29.3l-11.9-0.5
	c-0.2,0-0.2-0.1-0.2-0.3l1.4-31.1L482,54.7l-1.4,31.1c0,0.2-0.1,0.2-0.3,0.2l-12-0.5L470,48l-2.1-0.1L469.5,13.4z M508.5,56.1
	l6.4,0.3l-0.1,1.8l-6.4-0.3L508.5,56.1z"/>
<rect x="111.5" y="64.9" transform="matrix(0.866 -0.5 0.5 0.866 -18.6296 66.3932)" width="6.1" height="6.1"/>
<rect x="101.4" y="79.6" transform="matrix(0.9985 -5.431075e-02 5.431075e-02 0.9985 -4.3353 5.7932)" width="6.1" height="6.1"/>
<rect x="268.5" y="76.6" transform="matrix(0.9985 -5.431075e-02 5.431075e-02 0.9985 -3.9238 14.8644)" width="6.1" height="6.1"/>
<rect x="514.8" y="22.3" transform="matrix(0.9985 -5.431075e-02 5.431075e-02 0.9985 -0.6146 28.1615)" width="6.1" height="6.1"/>
<rect x="518" y="34.2" transform="matrix(0.9441 0.3295 -0.3295 0.9441 41.365 -169.6264)" width="6.1" height="6.1"/>
<rect x="518" y="35.2" transform="matrix(0.9441 0.3295 -0.3295 0.9441 41.6945 -169.5706)" width="6.1" height="6.1"/>
<rect x="521.4" y="66.6" transform="matrix(0.9441 0.3295 -0.3295 0.9441 51.6724 -168.511)" width="3" height="3"/>
<rect x="527.4" y="87.4" transform="matrix(0.9441 0.3295 -0.3295 0.9441 58.855 -169.3197)" width="3" height="3"/>
<rect x="212.6" y="44.3" transform="matrix(0.9441 0.3295 -0.3295 0.9441 27.0628 -67.9853)" width="3" height="3"/>
</svg>
